# xmcd
#
# Track frame offsets:
#	150
#	10394
#	24510
#	35287
#	46734
#	56752
#	69352
#	81402
#	95188
#	109425
#	123060
#	136157
#	149868
#	163461
#	177017
#	187895
#	199374
#	211902
#	225425
#	238900
#
# Disc length: 3369 seconds
#
# Revision: 0
# Processed by: cddbd v1.5.2PL0 Copyright (c) Steve Scherf et al.
# Submitted via: EasyCDDAExtractor 12.0.1.1
#
DISCID=220d2714
DTITLE=Dean Martin - Memories Are Made of This [CD1]
DYEAR=2006
DGENRE=Oldies
TTITLE0=Memories Are Made of This
TTITLE1=That's Amore
TTITLE2=Kiss
TTITLE3=Powder Your Face With Sunshine
TTITLE4=Once in Love With Amy
TTITLE5=How D'ya Like Your Eggs in the Morning?
TTITLE6=Vieni Su
TTITLE7=When You're Smiling
TTITLE8=How Do You Speak to an Angel?
TTITLE9=That Lucky Old Sun
TTITLE10=In Napoli
TTITLE11=Let Me Go Lover
TTITLE12=In the Cool, Cool, Cool of the Evening
TTITLE13=That's My Lover
TTITLE14=Every Street's a Boulevard
TTITLE15=Dreamy Old New England Moon
TTITLE16=Just for Fun
TTITLE17=My One, My Only, My All
TTITLE18=Absence Makes the Heart Grow Fonder
TTITLE19=Bye, Bye Blackbird
EXTD=
EXTT0=
EXTT1=
EXTT2=
EXTT3=
EXTT4=
EXTT5=
EXTT6=
EXTT7=
EXTT8=
EXTT9=
EXTT10=
EXTT11=
EXTT12=
EXTT13=
EXTT14=
EXTT15=
EXTT16=
EXTT17=
EXTT18=
EXTT19=
PLAYORDER=
